<svg width="362" height="117" viewBox="0 0 362 117" fill="none" xmlns="http://www.w3.org/2000/svg">
<path d="M43.2467 19.5739V97.7181C43.2467 100.276 42.2347 102.73 40.4332 104.539C38.6318 106.348 36.1885 107.364 33.6408 107.364H9.60593C7.05828 107.364 4.61498 106.348 2.81352 104.539C1.01206 102.73 0 100.276 0 97.7181V29.25C-6.88429e-07 27.9837 0.248539 26.7299 0.731406 25.5602C1.21427 24.3905 1.92199 23.3278 2.81412 22.4328C3.70624 21.5379 4.76528 20.8284 5.93067 20.3447C7.09606 19.8611 8.34494 19.6128 9.60593 19.6141L43.2467 19.5739Z" fill="#00E091"/>
<path d="M74.9022 74.9626C74.4125 74.4446 73.8678 73.982 73.2778 73.5831C71.7004 72.5107 69.8384 71.9389 67.9334 71.9419C65.3858 71.9419 62.9424 72.9582 61.141 74.7671C59.3395 76.5761 58.3275 79.0296 58.3275 81.5879V107.364C58.3301 109.921 59.3433 112.372 61.1445 114.178C62.9457 115.985 65.3875 117 67.9334 117H93.4824C95.2241 116.999 96.9328 116.522 98.4255 115.621C99.9182 114.719 101.139 113.427 101.957 111.883C102.774 110.339 103.159 108.601 103.068 106.854C102.978 105.107 102.417 103.418 101.444 101.967C101.143 101.522 100.808 101.101 100.441 100.709V100.709L74.9022 74.9626Z" fill="#00E091"/>
<path opacity="0.45" d="M9.60593 107.364L43.2067 73.6234V19.5739H9.60593C8.34494 19.5725 7.09606 19.8208 5.93067 20.3044C4.76528 20.7881 3.70624 21.4977 2.81412 22.3926C1.92199 23.2875 1.21427 24.3502 0.731406 25.5199C0.248539 26.6896 -6.88429e-07 27.9435 0 29.2097V97.6779C0 100.236 1.01206 102.69 2.81352 104.499C4.61498 106.308 7.05828 107.324 9.60593 107.324V107.364Z" fill="url(#paint0_radial)"/>
<path d="M33.6709 9.61576V60.0405C33.672 61.9164 34.2183 63.7513 35.2428 65.3199C36.2674 66.8885 37.7257 68.1227 39.4387 68.8711C41.1517 69.6195 43.0451 69.8494 44.8864 69.5328C46.7277 69.2162 48.437 68.3668 49.8045 67.0887L100.812 15.8585L100.973 15.6772C102.394 13.992 103.153 11.8437 103.108 9.6359C103.11 8.37012 102.862 7.11652 102.381 5.94684C101.899 4.77716 101.192 3.71439 100.301 2.81935C99.4094 1.92431 98.3511 1.21458 97.1863 0.730802C96.0214 0.247022 94.773 -0.00131944 93.5125 5.29016e-06H43.2768C40.7336 -0.00266889 38.2933 1.0086 36.4921 2.81162C34.691 4.61463 33.6762 7.06191 33.6709 9.61576Z" fill="#00E091"/>
<path d="M239.436 31.5054C237.618 30.7521 235.668 30.3754 233.701 30.3979C225.549 30.3979 220.495 35.3316 220.495 43.286V82.9572H226.512V52.7507H237.321V47.5249H226.381V43.6585C226.381 38.2818 228.928 35.6034 233.952 35.6034C235.586 35.5821 237.21 35.8761 238.735 36.4694L238.855 36.5197L239.567 31.6665L239.507 31.5558L239.436 31.5054Z" fill="#292B35"/>
<path d="M160.704 31.7873H169.006L150.907 52.6601L169.227 82.8565H161.376L146.275 57.8455L137.07 68.1359V82.8565H130.342V31.7873H137.07V58.8927L160.704 31.7873Z" fill="#292B35"/>
<path fill-rule="evenodd" clip-rule="evenodd" d="M190.715 46.8202C196.43 46.8202 201.183 49.0756 204.131 53.1031V47.5552H210.147V82.9572H204.131V77.369C201.163 81.4469 196.42 83.6822 190.715 83.6822C180.588 83.6822 172.947 75.5969 172.947 65.1454C172.947 54.694 180.588 46.8202 190.715 46.8202ZM178.913 65.1152C178.913 72.5863 184.237 78.2047 191.306 78.2047H191.256C192.96 78.2129 194.649 77.8798 196.223 77.2248C197.797 76.5698 199.226 75.606 200.425 74.39C201.624 73.1739 202.569 71.73 203.205 70.1426C203.842 68.5553 204.156 66.8564 204.131 65.1454C204.167 63.4445 203.859 61.7539 203.227 60.1753C202.595 58.5968 201.652 57.1628 200.454 55.9598C199.256 54.7568 197.828 53.8095 196.256 53.175C194.684 52.5404 193 52.2317 191.306 52.2674C184.237 52.2674 178.913 57.6441 178.913 65.1152Z" fill="#292B35"/>
<path fill-rule="evenodd" clip-rule="evenodd" d="M240.971 65.3065C240.971 54.6235 248.601 46.8705 259.11 46.8705C261.607 46.7795 264.093 47.2463 266.389 48.237C268.684 49.2277 270.733 50.7178 272.385 52.5996C274.014 54.6588 275.174 57.0504 275.786 59.6071C276.397 62.1638 276.445 64.8238 275.925 67.4009V67.4814H247.288C248.26 73.8852 253.545 78.0235 260.794 78.0235C265.145 78.0805 269.43 76.9568 273.198 74.7712L273.318 74.7108L274.381 80.2286H274.321C270.287 82.5853 265.691 83.7965 261.025 83.7325C249.213 83.7325 240.971 76.1607 240.971 65.3065ZM247.388 62.5678H270.4V62.5175C269.939 56.3956 265.717 52.4989 259.29 52.4989C252.863 52.4989 247.98 56.6272 247.388 62.5678Z" fill="#292B35"/>
<path d="M303.108 46.8705C300.847 46.7919 298.602 47.2778 296.574 48.2847C294.545 49.2916 292.798 50.788 291.487 52.6399V47.6055H285.471V83.0076H291.487V62.9806C291.487 56.9393 296.009 52.5191 302.236 52.5191C308.463 52.5191 312.073 56.1942 312.073 62.8699V82.9572H318.039V61.4401C317.999 52.2875 312.424 46.8705 303.108 46.8705Z" fill="#292B35"/>
<path fill-rule="evenodd" clip-rule="evenodd" d="M352.146 48.2163C354.435 49.2158 356.474 50.7129 358.117 52.5996C359.744 54.6594 360.901 57.0518 361.509 59.6087C362.117 62.1657 362.161 64.8253 361.636 67.4009V67.4814H333.009C333.972 73.8852 339.266 78.0235 346.516 78.0235C350.873 78.0972 355.168 76.9874 358.949 74.8115L359.069 74.7511L360.132 80.2286H360.072C356.039 82.5623 351.451 83.7557 346.796 83.6822C334.984 83.6822 326.742 76.1104 326.742 65.2562C326.742 54.5731 334.373 46.8201 344.881 46.8201C347.376 46.74 349.857 47.2169 352.146 48.2163ZM333.109 62.5175H356.172C355.71 56.3956 351.439 52.4486 345.011 52.4486C338.584 52.4486 333.701 56.5768 333.109 62.5175Z" fill="#292B35"/>
<defs>
<radialGradient id="paint0_radial" cx="0" cy="0" r="1" gradientUnits="userSpaceOnUse" gradientTransform="translate(73.082 41.3851) rotate(146.36) scale(95.1074 81.4628)">
<stop offset="0.43" stop-color="#0F9263"/>
<stop offset="0.58" stop-color="#00C881"/>
<stop offset="0.71" stop-color="#00E091" stop-opacity="0.55"/>
<stop offset="0.83" stop-color="#00E091" stop-opacity="0.18"/>
<stop offset="1" stop-color="#00E091" stop-opacity="0"/>
</radialGradient>
</defs>
</svg>
